<?xml version="1.0" encoding="UTF-8" standalone="no"?>
<!DOCTYPE svg PUBLIC "-//W3C//DTD SVG 1.1//EN" "http://www.w3.org/Graphics/SVG/1.1/DTD/svg11.dtd">
<svg width="100%" height="100%" viewBox="0 0 640 640" version="1.1" xmlns="http://www.w3.org/2000/svg" xmlns:xlink="http://www.w3.org/1999/xlink" xml:space="preserve" xmlns:serif="http://www.serif.com/" style="fill-rule:evenodd;clip-rule:evenodd;stroke-linejoin:round;stroke-miterlimit:2;">
    <style>
        @media (prefers-color-scheme: dark) {
            .a { fill: #f0f0f0 }
        }
    </style>
    <g transform="matrix(1.0319,0,0,1.0319,-31.6687,-42.7341)">
        <g transform="matrix(467.374,0,0,467.374,49.166,480)">
            <path class="a" d="M0.584,-0.083C0.572,-0.083 0.559,-0.085 0.553,-0.11L0.523,-0.235C0.512,-0.281 0.492,-0.322 0.444,-0.346C0.56,-0.398 0.635,-0.506 0.669,-0.666L0.566,-0.666C0.523,-0.465 0.401,-0.389 0.277,-0.389L0.215,-0.389L0.269,-0.666L0.164,-0.666L0.035,-0L0.14,-0L0.196,-0.288L0.277,-0.288C0.385,-0.288 0.406,-0.256 0.429,-0.162L0.452,-0.067C0.467,-0.005 0.498,0.013 0.551,0.013C0.578,0.013 0.609,0.006 0.631,-0.006L0.607,-0.089C0.602,-0.086 0.593,-0.083 0.584,-0.083Z" style="fill-rule:nonzero;"/>
        </g>
    </g>
    <g transform="matrix(1.0319,0,0,1.0319,216.867,-41.5801)">
        <g transform="matrix(467.374,0,0,467.374,49.166,480)">
            <path class="a" d="M0.391,-0.348L0.372,-0.253L0.564,-0.253C0.538,-0.148 0.472,-0.083 0.35,-0.083C0.225,-0.083 0.161,-0.169 0.161,-0.29C0.161,-0.462 0.259,-0.584 0.399,-0.584C0.489,-0.584 0.553,-0.544 0.574,-0.468L0.673,-0.486C0.659,-0.602 0.558,-0.679 0.41,-0.679C0.198,-0.679 0.049,-0.518 0.049,-0.283C0.049,-0.106 0.156,0.013 0.341,0.013C0.556,0.013 0.653,-0.125 0.681,-0.348L0.391,-0.348Z" style="fill-rule:nonzero;"/>
        </g>
    </g>
</svg>
